#!OML:ASF H:\LiuWeirdWalks\Patient Classification 1\Patient 1\Session 1\male.ASF
:FULLY-SPECIFIED
:DEGREES
245
root -1.80483 17.7762 -27.5448 3.46291 9.12019 -5.29275
lowerback 7.46014 -3.62722 2.08751
upperback 0.259848 -4.37806 6.92628
thorax -3.5224 -2.16272 6.52974
lowerneck -20.3041 3.04138 1.65691
upperneck 21.9366 5.82889 -7.96587
head 10.7401 1.82237 -2.25725
rclavicle -4.51241e-014 2.8625e-014
rhumerus -26.6253 -1.62705 -74.3052
rradius 18.433
rwrist -0.636943
rhand -17.9387 -4.12109
rfingers 7.12502
rthumb 8.32951 -33.9369
lclavicle -4.51241e-014 2.8625e-014
lhumerus -35.8784 21.2677 83.3738
lradius 36.1034
lwrist 5.19349
lhand -11.719 0.829573
lfingers 7.12502
lthumb 14.3278 30.3152
rfemur 0.644786 -0.749157 28.1413
rtibia 19.9176
rfoot -15.7453 -28.2942
rtoes -0.0862155
lfemur -33.7094 2.06442 -8.54231
ltibia 39.4343
lfoot -8.43699 11.8032
ltoes -17.8951
246
root -1.79411 17.7744 -27.4745 3.55268 9.09277 -5.32844
lowerback 7.4388 -3.64755 2.17042
upperback 0.248967 -4.39777 6.94716
thorax -3.52464 -2.17354 6.50603
lowerneck -20.223 3.03283 1.48345
upperneck 21.5774 5.82221 -7.89658
head 10.5854 1.82546 -2.19967
rclavicle 5.56597e-014 3.18055e-015
rhumerus -26.6055 -1.10188 -74.4949
rradius 18.6456
rwrist -1.01806
rhand -17.9146 -4.16408
rfingers 7.12502
rthumb 8.35279 -33.9789
lclavicle 5.56597e-014 3.18055e-015
lhumerus -35.9616 21.5017 83.3223
lradius 35.8642
lwrist 5.10551
lhand -11.701 0.896246
lfingers 7.12502
lthumb 14.3451 30.3806
rfemur 1.06343 -0.746949 28.1763
rtibia 19.3644
rfoot -15.5618 -28.298
rtoes -0.250634
lfemur -33.905 2.01872 -8.59162
ltibia 38.0576
lfoot -8.37786 11.946
ltoes -17.6777
247
root -1.78265 17.7725 -27.402 3.64812 9.06639 -5.3686
lowerback 7.38319 -3.58024 2.25179
upperback 0.218445 -4.3036 6.90618
thorax -3.54349 -2.12729 6.4042
lowerneck -20.0465 2.85252 1.25951
upperneck 21.2491 5.54373 -7.6435
head 10.4014 1.72403 -2.11065
rclavicle -3.08116e-014 4.13472e-014
rhumerus -26.7062 -0.978707 -74.6411
rradius 18.8303
rwrist -1.2605
rhand -17.8999 -4.15809
rfingers 7.12502
rthumb 8.36698 -33.9724
lclavicle -3.08116e-014 4.13472e-014
lhumerus -36.0239 21.4085 83.2822
lradius 35.5898
lwrist 5.02052
lhand -11.6815 0.946904
lfingers 7.12502
lthumb 14.364 30.43
rfemur 1.49764 -0.753665 28.2117
rtibia 18.7808
rfoot -15.3653 -28.2879
rtoes -0.440974
lfemur -34.1014 1.96682 -8.62773
ltibia 36.7077
lfoot -8.30363 12.0493
ltoes -17.4798
248
root -1.77069 17.7704 -27.3277 3.75084 9.04576 -5.41365
lowerback 7.30572 -3.45882 2.31849
upperback 0.180851 -4.1404 6.83829
thorax -3.56412 -2.04645 6.27389
lowerneck -19.8665 2.56797 0.98936
upperneck 21.0011 5.10991 -7.26744
head 10.2351 1.55943 -1.99432
rclavicle -6.75868e-015 -4.77083e-015
rhumerus -26.8593 -1.08314 -74.7549
rradius 19.0001
rwrist -1.43135
rhand -17.8996 -4.12331
rfingers 7.12502
rthumb 8.36725 -33.9376
lclavicle -6.75868e-015 -4.77083e-015
lhumerus -36.0558 21.1337 83.2636
lradius 35.2871
lwrist 4.93737
lhand -11.6533 0.975669
lfingers 7.12502
lthumb 14.3911 30.4568
rfemur 1.94659 -0.763984 28.2508
rtibia 18.1627
rfoot -15.1472 -28.2697
rtoes -0.657422
lfemur -34.306 1.88306 -8.64107
ltibia 35.3958
lfoot -8.20583 12.1335
ltoes -17.274
249
root -1.75755 17.768 -27.2505 3.84546 9.03146 -5.43388
lowerback 7.21945 -3.32599 2.35815
upperback 0.141975 -3.96549 6.7552
thorax -3.58052 -1.9596 6.14103
lowerneck -19.6939 2.26633 0.74804
upperneck 20.8096 4.65129 -6.89787
head 10.0943 1.38223 -1.88899
rclavicle 1.31198e-014 4.45278e-014
rhumerus -27.0317 -1.25779 -74.8522
rradius 19.1547
rwrist -1.54147
rhand -17.8905 -4.02673
rfingers 7.12502
rthumb 8.376 -33.8407
lclavicle 1.31198e-014 4.45278e-014
lhumerus -36.0908 20.8059 83.2457
lradius 34.9748
lwrist 4.8551
lhand -11.5958 1.00027
lfingers 7.12502
lthumb 14.4464 30.4774
rfemur 2.44098 -0.807295 28.2521
rtibia 17.5068
rfoot -14.9192 -28.2172
rtoes -0.893761
lfemur -34.4865 1.74802 -8.6632
ltibia 34.1358
lfoot -8.12593 12.1912
ltoes -17.0617
250
root -1.74416 17.7646 -27.1712 3.92585 9.0266 -5.46878
lowerback 7.11188 -2.96384 2.36318
upperback 0.150005 -3.4953 6.56326
thorax -3.56447 -1.72603 5.87933
lowerneck -19.6323 1.7474 0.844061
upperneck 20.7062 3.80224 -6.55778
head 9.99858 1.04347 -1.90685
rclavicle -4.19436e-014 4.92986e-014
rhumerus -27.3175 -2.32013 -74.8119
rradius 19.3039
rwrist -1.47794
rhand -17.8818 -3.87358
rfingers 7.12502
rthumb 8.38443 -33.6872
lclavicle -4.19436e-014 4.92986e-014
lhumerus -35.8459 19.7646 83.3955
lradius 34.5793
lwrist 4.76926
lhand -11.5278 1.02165
lfingers 7.12502
lthumb 14.512 30.4941
rfemur 2.97431 -0.84109 28.2732
rtibia 16.8181
rfoot -14.6839 -28.1687
rtoes -1.13519
lfemur -34.6588 1.5565 -8.64152
ltibia 32.9373
lfoot -8.02048 12.2535
ltoes -17.0025
251
root -1.72976 17.7608 -27.0901 4.00698 9.02638 -5.48754
lowerback 7.00906 -2.57681 2.37024
upperback 0.176747 -2.99358 6.34478
thorax -3.53181 -1.47734 5.5859
lowerneck -19.7376 1.36165 1.34234
upperneck 20.6649 3.10129 -6.5328
head 9.97688 0.762622 -2.08168
rclavicle -4.77083e-015 -2.54444e-014
rhumerus -27.5682 -3.49449 -74.7676
rradius 19.4383
rwrist -1.36076
rhand -17.9314 -3.70391
rfingers 7.12502
rthumb 8.33657 -33.5194
lclavicle -4.77083e-015 -2.54444e-014
lhumerus -35.5185 18.6477 83.5589
lradius 34.1498
lwrist 4.67099
lhand -11.4354 1.04439
lfingers 7.12502
lthumb 14.601 30.5104
rfemur 3.53597 -0.884449 28.2716
rtibia 16.0939
rfoot -14.4287 -28.1041
rtoes -1.38134
lfemur -34.8313 1.30831 -8.61391
ltibia 31.8124
lfoot -7.90567 12.3271
ltoes -16.9654
252
root -1.71441 17.7566 -27.0077 4.08782 9.01775 -5.51388
lowerback 6.8948 -2.01917 2.45685
upperback 0.221175 -2.26469 5.97815
thorax -3.49528 -1.11775 5.06864
lowerneck -19.8918 0.663649 1.71978
upperneck 20.6795 1.91441 -6.14746
head 9.95027 0.288769 -2.1789
rclavicle -2.98177e-014 -3.26007e-014
rhumerus -27.9468 -5.3797 -74.6859
rradius 19.5775
rwrist -1.0979
rhand -18.0256 -3.52695
rfingers 7.12502
rthumb 8.24567 -33.346
lclavicle -2.98177e-014 -3.26007e-014
lhumerus -35.0114 16.9149 83.7578
lradius 33.6586
lwrist 4.59182
lhand -11.338 1.07017
lfingers 7.12502
lthumb 14.6949 30.5294
rfemur 4.11806 -0.914273 28.2757
rtibia 15.3371
rfoot -14.1545 -28.0328
rtoes -1.64025
lfemur -35.0118 1.01927 -8.55426
ltibia 30.7717
lfoot -7.78032 12.4224
ltoes -17.0112
253
root -1.69814 17.7517 -26.9235 4.1608 9.00102 -5.56166
lowerback 6.77383 -1.37654 2.66565
upperback 0.280703 -1.41872 5.49899
thorax -3.4394 -0.702996 4.35486
lowerneck -20.0795 -0.0483633 2.40107
upperneck 20.6174 0.63157 -5.85728
head 9.89898 -0.215694 -2.37216
rclavicle 1.64991e-014 -1.82882e-014
rhumerus -28.3711 -7.69793 -74.6125
rradius 19.7016
rwrist -0.739591
rhand -18.1491 -3.38221
rfingers 7.12502
rthumb 8.12642 -33.206
lclavicle 1.64991e-014 -1.82882e-014
lhumerus -34.4151 14.8139 83.9225
lradius 33.152
lwrist 4.54862
lhand -11.2386 1.08708
lfingers 7.12502
lthumb 14.7907 30.5393
rfemur 4.72845 -0.912902 28.3059
rtibia 14.5484
rfoot -13.8589 -27.976
rtoes -1.91251
lfemur -35.1972 0.699101 -8.44849
ltibia 29.8273
lfoot -7.65791 12.5416
ltoes -17.0157
254
root -1.68145 17.7465 -26.8389 4.23552 8.98569 -5.62923
lowerback 6.68086 -0.792425 2.94957
upperback 0.337031 -0.644331 5.01651
thorax -3.37898 -0.325372 3.60841
lowerneck -20.2848 -0.699092 3.02853
upperneck 20.4982 -0.558684 -5.54165
head 9.83128 -0.679454 -2.53175
rclavicle 3.08116e-015 3.33958e-014
rhumerus -28.7336 -9.8437 -74.6134
rradius 19.83
rwrist -0.406276
rhand -18.2824 -3.28325
rfingers 7.12502
rthumb 7.99782 -33.1119
lclavicle 3.08116e-015 3.33958e-014
lhumerus -33.8602 12.8507 83.9974
lradius 32.6786
lwrist 4.5165
lhand -11.1528 1.12782
lfingers 7.12502
lthumb 14.8733 30.5739
rfemur 5.34946 -0.876464 28.3663
rtibia 13.7296
rfoot -13.5247 -27.949
rtoes -2.21946
lfemur -35.4033 0.365343 -8.30733
ltibia 28.9893
lfoot -7.53249 12.6713
ltoes -16.8964
255
root -1.66338 17.741 -26.7526 4.31028 8.95513 -5.70427
lowerback 6.61119 -0.359453 3.21068
upperback 0.367994 -0.0672742 4.64272
thorax -3.3312 -0.0448892 3.01307
lowerneck -20.4333 -1.15426 3.55153
upperneck 20.3373 -1.41514 -5.34189
head 9.75326 -1.01172 -2.66509
rclavicle 2.13694e-014 5.56597e-014
rhumerus -28.9515 -11.4493 -74.6538
rradius 19.9049
rwrist -0.124741
rhand -18.3603 -3.21973
rfingers 7.12502
rthumb 7.92259 -33.0513
lclavicle 2.13694e-014 5.56597e-014
lhumerus -33.4924 11.4307 83.9859
lradius 32.2672
lwrist 4.45148
lhand -11.0823 1.18369
lfingers 7.12502
lthumb 14.9412 30.6248
rfemur 5.98633 -0.823737 28.4312
rtibia 12.8879
rfoot -13.157 -27.9246
rtoes -2.56522
lfemur -35.6128 0.0330452 -8.15105
ltibia 28.2647
lfoot -7.40117 12.8162
ltoes -16.7942
256
root -1.64407 17.7351 -26.6648 4.39281 8.90639 -5.78158
lowerback 6.56001 -0.101288 3.37874
upperback 0.367865 0.278315 4.43318
thorax -3.31037 0.122946 2.66663
lowerneck -20.5751 -1.34954 3.97802
upperneck 20.2217 -1.83185 -5.33181
head 9.71083 -1.17154 -2.78894
rclavicle 3.97569e-016 -5.56597e-015
rhumerus -29.0099 -12.3464 -74.7244
rradius 19.9317
rwrist 0.077956
rhand -18.401 -3.1733
rfingers 7.12502
rthumb 7.88327 -33.0063
lclavicle 3.97569e-016 -5.56597e-015
lhumerus -33.337 10.7048 83.9225
lradius 31.9068
lwrist 4.33553
lhand -11.0322 1.23841
lfingers 7.12502
lthumb 14.9895 30.6759
rfemur 6.62127 -0.738262 28.4993
rtibia 12.0434
rfoot -12.7635 -27.9154
rtoes -2.93864
lfemur -35.8278 -0.299906 -7.98317
ltibia 27.6569
lfoot -7.29148 12.9938
ltoes -16.5983
257
root -1.62269 17.7287 -26.5754 4.48001 8.85964 -5.82327
lowerback 6.52117 -0.0792491 3.36967
upperback 0.339996 0.306699 4.4505
thorax -3.31828 0.13723 2.68717
lowerneck -20.6056 -1.28085 4.09968
upperneck 20.0878 -1.75364 -5.43863
head 9.67087 -1.13953 -2.83312
rclavicle 1.43125e-014 3.97569e-015
rhumerus -28.8631 -12.2643 -74.8251
rradius 19.9165
rwrist 0.158479
rhand -18.3906 -3.12767
rfingers 7.12502
rthumb 7.89339 -32.9603
lclavicle 1.43125e-014 3.97569e-015
lhumerus -33.4505 10.9094 83.8278
lradius 31.6192
lwrist 4.17155
lhand -10.9884 1.31522
lfingers 7.12502
lthumb 15.0316 30.7496
rfemur 7.25594 -0.6751 28.5172
rtibia 11.2203
rfoot -12.3742 -27.8882
rtoes -3.32843
lfemur -36.0312 -0.611903 -7.87147
ltibia 27.1663
lfoot -7.23854 13.1548
ltoes -16.372
258
root -1.59945 17.7216 -26.4842 4.56661 8.79747 -5.85549
lowerback 6.48135 -0.0508 3.35802
upperback 0.30347 0.343463 4.45708
thorax -3.33476 0.155565 2.69726
lowerneck -20.6077 -1.19506 4.26236
upperneck 19.9639 -1.6585 -5.56713
head 9.62982 -1.09871 -2.88915
rclavicle 2.23633e-014 2.38542e-015
rhumerus -28.7498 -12.2006 -74.9194
rradius 19.9198
rwrist 0.233781
rhand -18.3288 -3.08501
rfingers 7.12502
rthumb 7.95304 -32.9154
lclavicle 2.23633e-014 2.38542e-015
lhumerus -33.581 11.0956 83.7168
lradius 31.3243
lwrist 4.02845
lhand -10.9567 1.41477
lfingers 7.12502
lthumb 15.0622 30.8468
rfemur 7.87465 -0.603348 28.5168
rtibia 10.455
rfoot -12.0027 -27.8545
rtoes -3.75041
lfemur -36.2118 -0.860323 -7.79913
ltibia 26.7911
lfoot -7.21378 13.2786
ltoes -16.2414
259
root -1.57433 17.7138 -26.3908 4.64997 8.70278 -5.87938
lowerback 6.44494 -0.0112733 3.34145
upperback 0.267223 0.394524 4.4559
thorax -3.35318 0.181006 2.70071
lowerneck -20.6365 -1.0671 4.51348
upperneck 19.8389 -1.51696 -5.76733
head 9.59481 -1.03827 -2.9793
rclavicle 2.10712e-014 -3.73715e-014
rhumerus -28.6368 -12.1544 -75.0162
rradius 19.917
rwrist 0.339296
rhand -18.3142 -3.029
rfingers 7.12502
rthumb 7.96705 -32.8589
lclavicle 2.10712e-014 -3.73715e-014
lhumerus -33.7126 11.2769 83.595
lradius 31.0272
lwrist 3.90224
lhand -10.9138 1.5457
lfingers 7.12502
lthumb 15.1036 30.9747
rfemur 8.46813 -0.494401 28.4999
rtibia 9.77791
rfoot -11.6534 -27.8217
rtoes -4.21617
lfemur -36.3533 -1.02756 -7.76867
ltibia 26.5308
lfoot -7.21743 13.36
ltoes -16.1293
